<?xml version="1.0" encoding="UTF-8" standalone="no"?>
<svg
  xmlns:dc="http://purl.org/dc/elements/1.1/"
  xmlns:cc="http://creativecommons.org/ns#"
  xmlns:rdf="http://www.w3.org/1999/02/22-rdf-syntax-ns#"
  xmlns="http://www.w3.org/2000/svg"
  id="svg8"
  version="1.1"
  viewBox="0 0 19.357014 16.763954"
  height="16.763954mm"
  width="19.357014mm">
  <defs
    id="defs2"/>
  <metadata
    id="metadata5">
    <rdf:RDF>
      <cc:Work
        rdf:about="">
        <dc:format>image/svg+xml</dc:format>
        <dc:type
          rdf:resource="http://purl.org/dc/dcmitype/StillImage"/>
        <dc:title></dc:title>
      </cc:Work>
    </rdf:RDF>
  </metadata>
  <g
    transform="translate(-61.380103,-78.403889)"
    id="layer1">
    <path
      transform="matrix(4.6405642,-8.3599101,8.3599101,4.6405642,-914.17058,237.87132)"
      d="m 65.082865,82.882049 -2.024181,-0.03405 1.04158,-1.735966 z"
      id="path1424"
      style="opacity:1;fill:#2f353a;fill-opacity:1;stroke:none;stroke-width:0.26458332;stroke-opacity:1"/>
    <g
      id="text1384"
      style="font-style:normal;font-variant:normal;font-weight:bold;font-stretch:normal;font-size:10.58333302px;line-height:1.25;font-family:Dubai;-inkscape-font-specification:'Dubai, Bold';font-variant-ligatures:normal;font-variant-caps:normal;font-variant-numeric:normal;font-feature-settings:normal;text-align:start;letter-spacing:0px;word-spacing:0px;writing-mode:lr-tb;text-anchor:start;fill:#c8ced3;fill-opacity:1;stroke:none;stroke-width:0.26458332"
      aria-label="M">
      <path
        id="path1397"
        style="font-style:normal;font-variant:normal;font-weight:bold;font-stretch:normal;font-size:10.58333302px;font-family:Dubai;-inkscape-font-specification:'Dubai, Bold';font-variant-ligatures:normal;font-variant-caps:normal;font-variant-numeric:normal;font-feature-settings:normal;text-align:start;writing-mode:lr-tb;text-anchor:start;fill:#c8ced3;fill-opacity:1;stroke-width:0.26458332"
        d="m 74.768066,79.231287 v 6.858 h -1.481667 v -4.265083 q -0.137583,0.391583 -0.465667,1.026583 l -1.185333,2.391833 h -1.153583 l -1.2065,-2.391833 q -0.328084,-0.645583 -0.465667,-1.026583 v 4.265083 h -1.4605 v -6.858 h 1.545167 l 1.566333,3.005667 q 0.179917,0.34925 0.338667,0.719666 0.15875,0.359834 0.254,0.635 0.148166,-0.486833 0.592666,-1.354666 l 1.576917,-3.005667 z"/>
    </g>
    <g
      id="text1384-0"
      style="font-style:normal;font-variant:normal;font-weight:bold;font-stretch:normal;font-size:6.3983655px;line-height:1.25;font-family:Dubai;-inkscape-font-specification:'Dubai, Bold';font-variant-ligatures:normal;font-variant-caps:normal;font-variant-numeric:normal;font-feature-settings:normal;text-align:start;letter-spacing:0px;word-spacing:0px;writing-mode:lr-tb;text-anchor:start;fill:#63c2de;fill-opacity:1;stroke:none;stroke-width:0.15995914"
      aria-label="M">
      <path
        id="path1400"
        style="font-style:normal;font-variant:normal;font-weight:bold;font-stretch:normal;font-size:6.3983655px;font-family:Dubai;-inkscape-font-specification:'Dubai, Bold';font-variant-ligatures:normal;font-variant-caps:normal;font-variant-numeric:normal;font-feature-settings:normal;text-align:start;writing-mode:lr-tb;text-anchor:start;fill:#63c2de;fill-opacity:1;stroke-width:0.15995914"
        d="m 73.28943,83.595719 v 4.14614 h -0.895771 v -2.578541 q -0.08318,0.23674 -0.281528,0.620642 l -0.716617,1.44603 H 70.698092 L 69.968678,85.78396 Q 69.770329,85.393659 69.68715,85.163318 v 2.578541 h -0.882974 v -4.14614 h 0.934161 l 0.946958,1.817135 q 0.108772,0.211146 0.204748,0.435089 0.09597,0.217545 0.153561,0.383902 0.08958,-0.294325 0.358308,-0.818991 l 0.953356,-1.817135 z"/>
    </g>
    <g
      id="text1384-0-6"
      style="font-style:normal;font-variant:normal;font-weight:bold;font-stretch:normal;font-size:6.4370327px;line-height:1.25;font-family:Dubai;-inkscape-font-specification:'Dubai, Bold';font-variant-ligatures:normal;font-variant-caps:normal;font-variant-numeric:normal;font-feature-settings:normal;text-align:start;letter-spacing:0px;word-spacing:0px;writing-mode:lr-tb;text-anchor:start;fill:#c8ced3;fill-opacity:1;stroke:none;stroke-width:0.16092582"
      aria-label="P">
      <path
        id="path1403"
        style="font-style:normal;font-variant:normal;font-weight:bold;font-stretch:normal;font-size:6.4370327px;font-family:Dubai;-inkscape-font-specification:'Dubai, Bold';font-variant-ligatures:normal;font-variant-caps:normal;font-variant-numeric:normal;font-feature-settings:normal;text-align:start;writing-mode:lr-tb;text-anchor:start;fill:#c8ced3;fill-opacity:1;stroke-width:0.16092582"
        d="m 71.02433,87.198386 q 0.553585,0 0.920496,0.1738 0.366911,0.1738 0.547148,0.47634 0.180236,0.296104 0.180236,0.688763 0,0.418407 -0.186673,0.746696 -0.186674,0.321851 -0.566459,0.508525 -0.373348,0.180237 -0.914059,0.180237 h -0.527837 v 1.396836 h -0.914058 v -4.171197 z m -0.109429,2.040539 q 0.392659,0 0.605081,-0.148051 0.212422,-0.154489 0.212422,-0.527837 0,-0.315415 -0.193111,-0.469904 -0.186674,-0.160925 -0.527837,-0.160925 h -0.534274 v 1.306717 z"/>
    </g>
  </g>
</svg>
